# AST/ASF file generated using VICON BodyLanguage
# -----------------------------------------------
:version 1.10
:name VICON
:units
  mass 1.0
  length 0.45
  angle deg
:documentation
   .ast/.asf automatically generated from VICON data using
   VICON BodyBuilder and BodyLanguage model FoxedUp or BRILLIANT.MOD
:root
   order TX TY TZ RX RY RZ
   axis XYZ
   position 0 0 0  
   orientation 0 0 0 
:bonedata
  begin
     id 1 
     name lhipjoint
     direction 0.611823 -0.767273 0.19226 
     length 2.47422 
     axis 0 0 0  XYZ
  end
  begin
     id 2 
     name lfemur
     direction 0.34202 -0.939693 0  
     length 7.40835  
     axis 0 0 20  XYZ
    dof rx ry rz
    limits (-160.0 20.0)
           (-70.0 70.0)
           (-60.0 70.0)
  end
  begin
     id 3 
     name ltibia
     direction 0.34202 -0.939693 0   
     length 8.03679   
     axis 0 0 20   XYZ
    dof rx
    limits (-10.0 170.0)
  end
  begin
     id 4 
     name lfoot
     direction 0.0883598 -0.242766 0.966052   
     length 2.06694   
     axis -90 7.62852e-016 20   XYZ
    dof rx rz
    limits (-45.0 90.0)
           (-70.0 20.0)
  end
  begin
     id 5 
     name ltoes
     direction 1.53617e-011 -4.21699e-011 1   
     length 1.03711   
     axis -90 7.62852e-016 20   XYZ
    dof rx
    limits (-90.0 20.0)
  end
  begin
     id 6 
     name rhipjoint
     direction -0.590066 -0.783143 0.196236   
     length 2.42408  
     axis 0 0 0  XYZ 
  end
  begin
     id 7 
     name rfemur
     direction -0.34202 -0.939693 0   
     length 7.88987   
     axis 0 0 -20   XYZ
    dof rx ry rz
    limits (-160.0 20.0)
           (-70.0 70.0)
           (-70.0 60.0)
  end
  begin
     id 8 
     name rtibia
     direction -0.34202 -0.939693 0   
     length 7.87584   
     axis 0 0 -20   XYZ
    dof rx
    limits (-10.0 170.0)
 end
 begin
     id 9 
     name rfoot
     direction -0.130476 -0.358481 0.924374   
     length 2.21745  
     axis -90 -7.62852e-016 -20   XYZ
    dof rx rz
    limits (-45.0 90.0)
           (-20.0 70.0)
  end
  begin
     id 10 
     name rtoes
     direction 8.20695e-005 8.89091e-005 1   
     length 1.09536   
     axis -90 -7.62852e-016 -20   XYZ
    dof rx
    limits (-90.0 20.0)
  end
  begin
     id 11 
     name lowerback
     direction 0.00981224 0.999875 -0.0124197   
     length 1.94808   
     axis 0 0 0   XYZ
    dof rx ry rz
    limits (-20.0 45.0)
           (-30.0 30.0)
           (-30.0 30.0)
  end
  begin
     id 12 
     name upperback
     direction 0.038911 0.999194 0.00981686   
     length 1.94415   
     axis 0 0 0   XYZ
    dof rx ry rz
    limits (-20.0 45.0)
           (-30.0 30.0)
           (-30.0 30.0)
  end
  begin
     id 13 
     name thorax
     direction 0.0330692 0.999334 0.0154389   
     length 1.94117   
     axis 0 0 0   XYZ
    dof rx ry rz
    limits (-20.0 45.0)
           (-30.0 30.0)
           (-30.0 30.0)
  end
  begin
     id 14 
     name lowerneck
     direction -0.0374305 0.99415 0.10132   
     length 1.87291   
     axis 0 0 0   XYZ
    dof rx ry rz
    limits (-20.0 45.0)
           (-30.0 30.0)
           (-30.0 30.0)
  end
  begin
     id 15 
     name upperneck
     direction 0.0120692 0.985979 -0.166431   
     length 1.89248   
     axis 0 0 0   XYZ
    dof rx ry rz
    limits (-20.0 45.0)
           (-30.0 30.0)
           (-30.0 30.0)
  end
  begin
     id 16
     name head
     direction 0.00629908 0.997708 -0.06737  
     length 1.90559  
     axis 0 0 0   XYZ
    dof rx ry rz
    limits (-20.0 45.0)
           (-30.0 30.0)
           (-30.0 30.0)
  end
  begin
     id 17 
     name lclavicle
     direction 0.961536 0.27308 -0.0295863  
     length 3.52757  
     axis 0 0 0   XYZ
    dof ry rz
    limits (-20.0 10.0)
           (0.0 20.0)
  end
  begin
     id 18 
     name lhumerus
     direction 1 -4.48969e-011 2.61153e-029   
     length 5.14845   
     axis 180 -30 -90   XYZ
    dof rx ry rz
    limits (-60.0 90.0)
           (-90.0 90.0)
           (-90.0 90.0)
  end
  begin
     id 19
     name lradius
     direction 1 -4.4896e-011 -3.37549e-027   
     length 3.43674   
     axis 180 -30 -90   XYZ
    dof rx
    limits (-10.0 170.0)
  end
  begin
     id 20
     name lwrist
     direction 1 -4.48969e-011 2.56952e-028   
     length 1.71837   
     axis -5.12785e-016 90 90   XYZ
    dof ry
    limits (-180.0 0.0)
 end
  begin
     id 21 
     name lhand
     direction 1 -4.49094e-011 5.13905e-028   
     length 0.588709   
     axis -3.27915e-016 90 90   XYZ
    dof rx rz
    limits (-90.0 90.0)
           (-45.0 45.0)
  end
  begin
     id 22 
     name lfingers
     direction 1 -4.48821e-011 1.02781e-027   
     length 0.474633   
     axis -6.5583e-016 90 90   XYZ
    dof rx
    limits (0.0 90.0)
  end
  begin
     id 23
     name lthumb
     direction 0.707107 -6.34922e-011 0.707107   
     length 0.68148   
     axis -90 45 2.85299e-015   XYZ
    dof rx rz
    limits (-45.0 45.0)
           (-45.0 45.0)
  end
  begin
     id 24 
     name rclavicle
     direction -0.940964 0.333844 -0.0559866   
     length 3.55948  
     axis 0 0 0   XYZ 
    dof ry rz
    limits (-10.0 20.0)
           (-20.0 0.0)
  end
  begin
     id 25 
     name rhumerus
     direction -1 -4.48973e-011 3.15259e-027  
     length 5.42185   
     axis 180 30 90   XYZ
    dof rx ry rz
    limits (-90.0 60.0)
           (-90.0 90.0)
           (-90.0 90.0)
  end
  begin
     id 26 
     name rradius
     direction -1 -4.48954e-011 -2.56271e-027   
     length 3.51317   
     axis 180 30 90   XYZ
    dof rx
    limits (-10.0 170.0)
  end
  begin
     id 27 
     name rwrist
     direction -1 -4.48943e-011 2.56952e-028   
     length 1.75658   
     axis -5.12785e-016 -90 -90   XYZ
    dof ry
    limits (-180.0 0.0)
  end
  begin
     id 28
     name rhand
     direction -1 -4.4912e-011 5.13905e-028   
     length 0.663187   
     axis -3.27915e-016 -90 -90   XYZ
    dof rx rz
    limits (-90.0 90.0)
           (-45.0 45.0)
  end
  begin
     id 29
     name rfingers
     direction -1 -4.48914e-011 1.02781e-027   
     length 0.534679   
     axis -6.5583e-016 -90 -90   XYZ
    dof rx
    limits (0.0 90.0)
  end
  begin
     id 30
     name rthumb
     direction -0.707107 -6.35033e-011 0.707107   
     length 0.767695   
     axis -90 -45 -2.85299e-015   XYZ
    dof rx rz
    limits (-45.0 45.0)
           (-45.0 45.0)
  end
:hierarchy
  begin
    root lhipjoint rhipjoint lowerback
    lhipjoint lfemur
    lfemur ltibia
    ltibia lfoot
    lfoot ltoes
    rhipjoint rfemur
    rfemur rtibia
    rtibia rfoot
    rfoot rtoes
    lowerback upperback
    upperback thorax
    thorax lowerneck lclavicle rclavicle
    lowerneck upperneck
    upperneck head
    lclavicle lhumerus
    lhumerus lradius
    lradius lwrist
    lwrist lhand lthumb
    lhand lfingers
    rclavicle rhumerus
    rhumerus rradius
    rradius rwrist
    rwrist rhand rthumb
    rhand rfingers
  end

#!OML:ASF F:\VICON\USERDATA\INSTALL\Justin_a\Justin_a.ASF
:FULLY-SPECIFIED
:DEGREES
937
root 3.15821 17.9747 -5.29234 9.94693 -41.9398 -2.4145
lowerback 0.310413 0.0454848 0.633163
upperback 0.428259 0.0229575 4.25559
thorax 0.264019 -0.00688333 4.02231
lowerneck -15.1562 -1.36538 -4.72819
upperneck 27.7452 0.150241 -3.52789
head 11.5965 -0.9733 -0.494811
rclavicle 4.77083e-015 -9.54166e-015
rhumerus -26.8291 -9.45277 -81.2657
rradius 38.099
rwrist -9.70489
rhand -26.4467 11.8505
rfingers 7.12502
rthumb 0.114288 -18.1292
lclavicle 4.77083e-015 -9.54166e-015
lhumerus -45.1786 13.6622 86.1925
lradius 29.9349
lwrist 7.68503
lhand -18.8269 26.0846
lfingers 7.12502
lthumb 7.47225 55.9326
rfemur -33.5625 6.13175 24.8215
rtibia 30.9159
rfoot -8.78016 -2.56297
rtoes 6.23132
lfemur -7.45884 -2.64515 -19.4957
ltibia 43.5917
lfoot 8.60154 -20.5437
ltoes -0.576207
938
root 3.04433 17.9602 -5.19765 10.2289 -41.9511 -2.90878
lowerback 0.371875 0.0613494 0.889102
upperback 0.351211 0.0463433 4.44187
thorax 0.149101 0.0050907 4.07121
lowerneck -15.1719 -1.36596 -4.75798
upperneck 28.0524 0.198415 -3.64827
head 11.7208 -0.981789 -0.532891
rclavicle -4.49253e-014 6.36111e-015
rhumerus -27.1309 -9.09395 -81.181
rradius 37.7865
rwrist -9.63852
rhand -26.3819 11.413
rfingers 7.12502
rthumb 0.176877 -18.5667
lclavicle -4.49253e-014 6.36111e-015
lhumerus -45.0147 13.3325 86.4984
lradius 30.0783
lwrist 7.91989
lhand -18.1424 26.9187
lfingers 7.12502
lthumb 8.13293 56.7422
rfemur -33.1219 6.35526 25.3149
rtibia 31.1509
rfoot -9.20556 -2.57565
rtoes 7.64714
lfemur -8.55548 -1.95107 -18.8343
ltibia 45.6537
lfoot 9.61518 -22.1287
ltoes -6.3667
939
root 2.92707 18.0093 -5.09396 10.3552 -41.9048 -3.216
lowerback 0.281229 0.070865 1.18755
upperback 0.441294 0.0504644 4.47506
thorax 0.292522 0.0058081 3.93698
lowerneck -15.4619 -1.36372 -4.63992
upperneck 28.2971 0.198235 -3.64758
head 11.8745 -0.978844 -0.559275
rclavicle -1.63003e-014 -2.54444e-014
rhumerus -27.2058 -9.17721 -81.2725
rradius 37.4465
rwrist -9.32488
rhand -26.488 11.0223
rfingers 7.12502
rthumb 0.0744557 -18.9574
lclavicle -1.63003e-014 -2.54444e-014
lhumerus -44.5332 12.694 86.8488
lradius 30.1506
lwrist 8.03017
lhand -17.7767 27.0725
lfingers 7.12502
lthumb 8.48584 56.882
rfemur -32.4172 6.46064 25.6726
rtibia 31.1913
rfoot -9.72137 -2.58883
rtoes 8.45085
lfemur -10.0889 -2.04026 -18.2039
ltibia 47.9074
lfoot 14.3881 -21.3363
ltoes 6.81174
940
root 2.81594 18.0077 -4.98765 10.1424 -41.9033 -3.06911
lowerback 0.275666 0.0257596 1.14792
upperback 0.415039 -0.00849466 4.46448
thorax 0.272207 -0.0234348 3.94838
lowerneck -15.4433 -1.31175 -4.59894
upperneck 28.4313 0.289092 -3.74232
head 11.9239 -0.951312 -0.590694
rclavicle -4.57205e-015 -1.19271e-014
rhumerus -27.6359 -8.31453 -81.382
rradius 37.4459
rwrist -9.6737
rhand -26.3872 11.0954
rfingers 7.12502
rthumb 0.171797 -18.8843
lclavicle -4.57205e-015 -1.19271e-014
lhumerus -44.4029 12.3403 87.0319
lradius 30.29
lwrist 7.52195
lhand -17.6194 26.347
lfingers 7.12502
lthumb 8.63767 56.1503
rfemur -31.7731 6.31416 25.7033
rtibia 31.2802
rfoot -10.2599 -2.34705
rtoes 9.03423
lfemur -10.9569 -2.01412 -18.2876
ltibia 49.9552
lfoot 15.159 -22.6121
ltoes 5.37507
941
root 2.70545 18.035 -4.89428 10.2585 -41.9065 -3.3658
lowerback 0.462116 -0.00176913 1.276
upperback 0.303496 -0.0349938 4.61268
thorax 0.0547634 -0.0360007 4.03041
lowerneck -15.2308 -1.26328 -4.61998
upperneck 28.4329 0.378921 -3.85781
head 11.8824 -0.928201 -0.615668
rclavicle -6.04305e-014 -5.96354e-014
rhumerus -27.7993 -8.45282 -81.257
rradius 36.8498
rwrist -9.01841
rhand -25.7472 12.0849
rfingers 7.12502
rthumb 0.789954 -17.8934
lclavicle -6.04305e-014 -5.96354e-014
lhumerus -44.3282 12.3527 87.0461
lradius 30.3542
lwrist 6.34468
lhand -17.3242 25.3197
lfingers 7.12502
lthumb 8.92247 55.1111
rfemur -31.0484 6.25937 26.1071
rtibia 31.1076
rfoot -10.6649 -2.22764
rtoes 9.09667
lfemur -12.3763 -2.17988 -17.8674
ltibia 52.1359
lfoot 17.6242 -22.3271
ltoes 11.083
942
root 2.59428 18.0524 -4.80028 10.4348 -42.0826 -3.58125
lowerback 0.303866 0.106106 1.41847
upperback 0.319621 0.100756 4.65444
thorax 0.152117 0.0311991 3.99297
lowerneck -15.035 -1.32486 -4.70097
upperneck 28.3015 0.285739 -3.83058
head 11.7914 -0.969091 -0.601209
rclavicle -3.69739e-014 -2.22639e-014
rhumerus -27.9079 -8.51801 -81.258
rradius 36.482
rwrist -8.59137
rhand -25.7261 12.3116
rfingers 7.12502
rthumb 0.810297 -17.6666
lclavicle -3.69739e-014 -2.22639e-014
lhumerus -43.8858 11.7403 87.4567
lradius 30.3457
lwrist 6.03355
lhand -17.3923 25.0798
lfingers 7.12502
lthumb 8.85678 54.8739
rfemur -30.5572 6.22009 26.4376
rtibia 31.1123
rfoot -11.1528 -1.98938
rtoes 9.48988
lfemur -13.8309 -2.01873 -17.5186
ltibia 54.1575
lfoot 19.193 -22.0465
ltoes 14.3206
943
root 2.48535 18.0739 -4.69981 10.486 -42.2012 -3.71992
lowerback 0.324051 0.145688 1.48275
upperback 0.252093 0.15597 4.76288
thorax 0.068102 0.0587746 4.06942
lowerneck -14.8875 -1.31584 -4.77424
upperneck 28.4137 0.345952 -3.96277
head 11.8076 -0.970981 -0.630371
rclavicle 8.32908e-014 6.36111e-015
rhumerus -28.1578 -8.2759 -81.168
rradius 36.1324
rwrist -8.1257
rhand -25.9475 11.8994
rfingers 7.12502
rthumb 0.59648 -18.0795
lclavicle 8.32908e-014 6.36111e-015
lhumerus -43.611 11.2653 87.8541
lradius 30.3399
lwrist 5.44153
lhand -17.4165 24.3196
lfingers 7.12502
lthumb 8.83343 54.1147
rfemur -29.8598 6.04189 26.7136
rtibia 30.9743
rfoot -11.6355 -1.71978
rtoes 9.21702
lfemur -15.2369 -1.96116 -17.23
ltibia 56.1484
lfoot 20.1354 -21.1324
ltoes 17.7482
944
root 2.38064 18.0847 -4.59972 10.5202 -42.3743 -3.90811
lowerback 0.147454 0.154976 1.82132
upperback 0.377147 0.153777 4.69562
thorax 0.296993 0.0569033 3.80853
lowerneck -14.8981 -1.22375 -4.65096
upperneck 28.4244 0.455492 -3.99922
head 11.8129 -0.914008 -0.649421
rclavicle 1.01778e-013 -3.18055e-014
rhumerus -27.9729 -8.58546 -81.284
rradius 35.421
rwrist -7.23822
rhand -25.8951 12.1236
rfingers 7.12502
rthumb 0.647025 -17.8552
lclavicle 1.01778e-013 -3.18055e-014
lhumerus -43.0365 10.8973 87.8726
lradius 30.4688
lwrist 4.75919
lhand -17.1566 24.1761
lfingers 7.12502
lthumb 9.08428 53.9604
rfemur -29.1735 5.941 26.9942
rtibia 30.9644
rfoot -12.2016 -1.51162
rtoes 9.52805
lfemur -16.3158 -1.59491 -17.0191
ltibia 58.0285
lfoot 18.3171 -21.433
ltoes 12.7807
945
root 2.27686 18.0934 -4.5041 10.4874 -42.6079 -4.02333
lowerback 0.281058 0.22538 1.85659
upperback 0.351619 0.254194 4.7582
thorax 0.190368 0.106992 3.85329
lowerneck -14.8171 -1.17731 -4.6752
upperneck 28.5442 0.561427 -4.12743
head 11.8453 -0.890261 -0.679667
rclavicle 3.71727e-014 4.77083e-015
rhumerus -28.2972 -8.01014 -81.2376
rradius 35.2395
rwrist -7.30341
rhand -25.8117 12.2261
rfingers 7.12502
rthumb 0.727589 -17.7524
lclavicle 3.71727e-014 4.77083e-015
lhumerus -42.6637 10.4433 88.1928
lradius 30.8267
lwrist 5.42695
lhand -16.5296 24.8155
lfingers 7.12502
lthumb 9.68923 54.5727
rfemur -28.4877 5.87491 27.2158
rtibia 30.9203
rfoot -12.7101 -1.27968
rtoes 9.98355
lfemur -17.4573 -1.30665 -16.8722
ltibia 59.7528
lfoot 16.7491 -20.5242
ltoes 11.7311
946
root 2.17322 18.0966 -4.40868 10.443 -42.9256 -4.06151
lowerback 0.264262 0.28103 1.88908
upperback 0.382197 0.326166 4.73061
thorax 0.227694 0.142962 3.80628
lowerneck -14.784 -1.09827 -4.57307
upperneck 28.6392 0.682161 -4.25349
head 11.8767 -0.845367 -0.728457
rclavicle -4.67144e-014 -3.18055e-014
rhumerus -28.4262 -7.69942 -81.3252
rradius 34.8707
rwrist -7.22438
rhand -25.8782 12.4876
rfingers 7.12502
rthumb 0.663417 -17.4911
lclavicle -4.67144e-014 -3.18055e-014
lhumerus -42.2121 9.93763 88.4071
lradius 31.1926
lwrist 6.08316
lhand -16.6108 24.825
lfingers 7.12502
lthumb 9.61084 54.5857
rfemur -27.8512 5.94203 27.3415
rtibia 30.8447
rfoot -13.1814 -1.10705
rtoes 9.80632
lfemur -18.452 -0.751501 -16.8906
ltibia 61.3946
lfoot 12.7427 -20.862
ltoes 2.81489
947
root 2.0707 18.1158 -4.30608 10.3243 -43.234 -4.07579
lowerback 0.289761 0.361724 1.99358
upperback 0.394805 0.434587 4.69472
thorax 0.22172 0.197517 3.70969
lowerneck -14.6835 -1.05244 -4.60708
upperneck 28.7903 0.750822 -4.25137
head 11.9161 -0.823545 -0.714159
rclavicle -3.77691e-015 1.74931e-014
rhumerus -28.6213 -7.66021 -81.2885
rradius 34.4161
rwrist -6.61827
rhand -25.8917 12.5419
rfingers 7.12502
rthumb 0.650336 -17.4368
lclavicle -3.77691e-015 1.74931e-014
lhumerus -41.8307 9.58185 88.5268
lradius 31.3196
lwrist 5.84018
lhand -17.5794 23.1637
lfingers 7.12502
lthumb 8.67625 52.9654
rfemur -27.0828 6.01928 27.4197
rtibia 30.6953
rfoot -13.6118 -1.00469
rtoes 9.21857
lfemur -19.5105 -0.479076 -16.8632
ltibia 62.9267
lfoot 10.4177 -19.8344
ltoes 1.86709
948
root 1.96514 18.144 -4.20145 10.2058 -43.5624 -3.98834
lowerback 0.229526 0.441571 1.96747
upperback 0.353258 0.540727 4.66779
thorax 0.207534 0.251012 3.69651
lowerneck -14.3464 -0.989618 -4.6238
upperneck 28.8283 0.833361 -4.31268
head 11.8629 -0.79614 -0.720787
rclavicle -9.74045e-015 1.11319e-014
rhumerus -28.8529 -7.77063 -81.1522
rradius 33.8641
rwrist -5.67584
rhand -25.5792 12.0572
rfingers 7.12502
rthumb 0.952127 -17.9204
lclavicle -9.74045e-015 1.11319e-014
lhumerus -41.5888 9.40857 88.5927
lradius 31.6272
lwrist 5.61293
lhand -17.0605 24.4705
lfingers 7.12502
lthumb 9.17698 54.2508
rfemur -26.3847 6.12013 27.3989
rtibia 30.5706
rfoot -14.0332 -0.861632
rtoes 9.16497
lfemur -20.7149 -0.304578 -16.8885
ltibia 64.3088
lfoot 8.68678 -18.4651
ltoes 2.2977
949
root 1.85905 18.1599 -4.10497 10.2254 -43.8655 -4.02533
lowerback 0.0811829 0.497094 1.96414
upperback 0.37251 0.606424 4.65815
thorax 0.307362 0.283688 3.68979
lowerneck -14.1083 -0.969889 -4.63574
upperneck 28.7554 0.85999 -4.37974
head 11.7864 -0.79028 -0.737089
rclavicle -1.98785e-014 2.70347e-014
rhumerus -28.9841 -7.70763 -81.1647
rradius 33.5145
rwrist -5.11274
rhand -25.6257 11.5288
rfingers 7.12502
rthumb 0.907274 -18.4491
lclavicle -1.98785e-014 2.70347e-014
lhumerus -41.1717 9.42082 88.5153
lradius 31.9013
lwrist 5.2939
lhand -16.704 24.5721
lfingers 7.12502
lthumb 9.52095 54.337
rfemur -25.7621 6.20121 27.5038
rtibia 30.4342
rfoot -14.4793 -0.733083
rtoes 9.11914
lfemur -21.9049 0.0352342 -16.8481
ltibia 65.4695
lfoot 6.55756 -17.1158
ltoes 0.459236
950
root 1.75644 18.1668 -4.01019 10.0809 -44.1072 -3.89311
lowerback -0.00972609 0.542244 1.88304
upperback 0.392297 0.66293 4.58293
thorax 0.375781 0.312271 3.65845
lowerneck -14.0131 -0.943085 -4.51521
upperneck 28.8599 0.907119 -4.54284
head 11.8094 -0.780834 -0.813398
rclavicle -2.76311e-014 0
rhumerus -29.1864 -7.58311 -81.2784
rradius 33.2856
rwrist -4.93326
rhand -26.1547 11.5905
rfingers 7.12502
rthumb 0.39636 -18.3889
lclavicle -2.76311e-014 0
lhumerus -40.7502 9.24072 88.4632
lradius 32.1151
lwrist 4.97178
lhand -17.6353 23.2788
lfingers 7.12502
lthumb 8.62232 53.0827
rfemur -25.1687 6.13812 27.4944
rtibia 30.4409
rfoot -14.9876 -0.564626
rtoes 9.32581
lfemur -22.9533 0.44477 -16.9931
ltibia 66.3708
lfoot 4.60661 -15.8244
ltoes -2.19537
951
root 1.65174 18.1723 -3.90982 10.0192 -44.3907 -4.04903
lowerback -0.0479336 0.604382 2.04006
upperback 0.475669 0.738767 4.56078
thorax 0.481419 0.350159 3.54819
lowerneck -13.9569 -0.879051 -4.41973
upperneck 28.9841 0.999198 -4.63838
head 11.8479 -0.746277 -0.854624
rclavicle 8.94531e-015 -6.36111e-015
rhumerus -29.406 -7.43388 -81.3555
rradius 33.2491
rwrist -4.3911
rhand -25.8797 10.8683
rfingers 7.12502
rthumb 0.661915 -19.1105
lclavicle 8.94531e-015 -6.36111e-015
lhumerus -40.3069 9.12308 88.4054
lradius 32.3389
lwrist 4.89352
lhand -16.9031 24.6248
lfingers 7.12502
lthumb 9.32881 54.3984
rfemur -24.4832 6.21878 27.6949
rtibia 30.5861
rfoot -15.5268 -0.566612
rtoes 8.82864
lfemur -23.7757 0.897019 -16.9371
ltibia 67.0853
lfoot 3.13332 -14.4739
ltoes -3.71994
